<svg xmlns="http://www.w3.org/2000/svg" id="canvas" viewBox="146.849 460.175 677.162 115.293"><path d="M 184.84,463.43 C 184.40 463.82, 184.34 464.32, 183.67 465.62 C 183.00 466.93, 182.44 467.67, 181.49 469.95 C 180.53 472.22, 180.02 473.82, 178.88 476.99 C 177.74 480.15, 177.22 481.84, 175.79 485.78 C 174.35 489.72, 173.34 491.98, 171.71 496.70 C 170.07 501.43, 169.22 504.24, 167.63 509.41 C 166.04 514.57, 165.16 517.41, 163.74 522.54 C 162.33 527.67, 161.74 530.27, 160.57 535.05 C 159.41 539.84, 158.89 542.25, 157.90 546.47 C 156.91 550.69, 156.43 552.66, 155.62 556.16 C 154.82 559.66, 154.45 561.31, 153.87 563.96 C 153.28 566.62, 152.96 567.83, 152.68 569.42 C 152.40 571.01, 152.41 571.65, 152.48 571.91 C 152.54 572.17, 152.82 571.94, 153.00 570.72 C 153.18 569.51, 153.30 568.25, 153.38 565.83 C 153.45 563.41, 153.35 561.65, 153.37 558.63 C 153.38 555.60, 153.29 553.79, 153.46 550.71 C 153.62 547.62, 153.74 546.21, 154.20 543.19 C 154.66 540.17, 155.08 538.64, 155.75 535.61 C 156.42 532.59, 156.63 531.13, 157.55 528.05 C 158.46 524.98, 158.96 523.51, 160.30 520.23 C 161.64 516.95, 162.67 514.92, 164.24 511.65 C 165.81 508.39, 166.43 506.91, 168.14 503.91 C 169.86 500.91, 170.78 499.19, 172.82 496.64 C 174.86 494.08, 176.11 492.99, 178.34 491.14 C 180.57 489.28, 181.67 488.59, 183.97 487.37 C 186.27 486.14, 187.50 485.65, 189.83 485.02 C 192.15 484.39, 193.38 484.16, 195.60 484.20 C 197.83 484.25, 198.85 484.64, 200.94 485.25 C 203.03 485.85, 204.11 486.36, 206.05 487.23 C 208.00 488.10, 208.96 488.56, 210.66 489.59 C 212.36 490.61, 213.24 491.28, 214.54 492.35 C 215.83 493.43, 216.35 493.88, 217.13 494.98 C 217.92 496.07, 218.32 496.50, 218.47 497.81 C 218.62 499.12, 218.56 499.94, 217.89 501.53 C 217.21 503.12, 216.53 503.92, 215.08 505.78 C 213.63 507.63, 212.70 508.70, 210.65 510.82 C 208.60 512.93, 207.26 514.14, 204.84 516.36 C 202.41 518.59, 201.10 519.82, 198.53 521.95 C 195.97 524.09, 194.68 525.10, 192.03 527.04 C 189.37 528.98, 188.09 529.77, 185.25 531.64 C 182.42 533.52, 180.78 534.52, 177.84 536.43 C 174.90 538.33, 173.26 539.34, 170.55 541.19 C 167.84 543.03, 166.47 543.87, 164.30 545.63 C 162.12 547.39, 161.07 548.43, 159.66 550.00 C 158.25 551.57, 157.65 552.24, 157.23 553.48 C 156.81 554.72, 156.92 555.24, 157.56 556.22 C 158.19 557.20, 158.88 557.78, 160.40 558.37 C 161.92 558.96, 162.98 559.10, 165.14 559.17 C 167.30 559.24, 168.65 559.04, 171.20 558.72 C 173.75 558.41, 175.21 558.15, 177.91 557.58 C 180.61 557.01, 182.00 556.62, 184.71 555.87 C 187.41 555.11, 188.79 554.69, 191.44 553.80 C 194.10 552.91, 195.38 552.41, 197.97 551.42 C 200.55 550.43, 201.88 549.88, 204.36 548.85 C 206.85 547.81, 208.15 547.19, 210.39 546.25 C 212.62 545.30, 213.59 544.86, 215.52 544.12 C 217.46 543.37, 218.38 543.07, 220.07 542.53 C 221.75 541.98, 222.48 541.81, 223.96 541.40 C 225.44 540.98, 226.25 540.92, 227.49 540.47 C 228.72 540.01, 229.31 539.79, 230.13 539.13 C 230.96 538.47, 231.35 538.02, 231.61 537.16 C 231.87 536.30, 231.78 535.69, 231.41 534.83 C 231.05 533.96, 230.68 533.42, 229.79 532.83 C 228.90 532.24, 228.09 531.99, 226.95 531.87 C 225.80 531.75, 225.12 531.99, 224.06 532.22 C 223.00 532.46, 222.63 532.64, 221.64 533.03 C 220.65 533.42, 220.24 533.58, 219.11 534.18 C 217.98 534.78, 217.21 535.03, 216.00 536.04 C 214.79 537.04, 214.22 537.83, 213.08 539.20 C 211.93 540.58, 211.26 541.45, 210.28 542.92 C 209.30 544.39, 208.74 545.20, 208.16 546.54 C 207.58 547.88, 207.36 548.47, 207.37 549.60 C 207.39 550.74, 207.47 551.43, 208.24 552.23 C 209.01 553.03, 209.73 553.45, 211.21 553.60 C 212.69 553.75, 213.74 553.47, 215.65 552.98 C 217.56 552.49, 218.58 552.07, 220.76 551.15 C 222.94 550.22, 224.32 549.58, 226.55 548.36 C 228.77 547.14, 229.82 546.33, 231.88 545.04 C 233.93 543.76, 235.03 543.11, 236.83 541.92 C 238.62 540.73, 239.70 539.99, 240.84 539.10 C 241.98 538.20, 242.27 537.76, 242.53 537.44 C 242.78 537.12, 242.58 537.05, 242.12 537.51 C 241.66 537.97, 241.07 538.54, 240.23 539.74 C 239.39 540.94, 238.67 541.89, 237.91 543.49 C 237.16 545.10, 236.78 546.13, 236.46 547.77 C 236.14 549.40, 235.93 550.35, 236.33 551.68 C 236.74 553.01, 237.26 553.68, 238.49 554.43 C 239.72 555.17, 240.67 555.32, 242.48 555.42 C 244.29 555.53, 245.36 555.42, 247.54 554.97 C 249.72 554.52, 251.05 554.14, 253.37 553.18 C 255.70 552.22, 257.03 551.52, 259.16 550.17 C 261.30 548.82, 262.31 547.83, 264.07 546.44 C 265.83 545.04, 266.56 544.30, 267.97 543.18 C 269.38 542.07, 270.16 541.55, 271.10 540.85 C 272.05 540.16, 272.34 539.83, 272.69 539.71 C 273.04 539.60, 272.92 539.76, 272.87 540.28 C 272.83 540.80, 272.60 541.31, 272.45 542.33 C 272.30 543.34, 272.14 544.10, 272.10 545.35 C 272.07 546.61, 272.03 547.35, 272.27 548.59 C 272.51 549.83, 272.62 550.63, 273.31 551.56 C 274.01 552.48, 274.63 552.92, 275.74 553.23 C 276.86 553.54, 277.53 553.46, 278.91 553.11 C 280.29 552.77, 281.11 552.43, 282.64 551.51 C 284.17 550.58, 284.91 549.86, 286.57 548.48 C 288.22 547.10, 289.24 546.34, 290.90 544.62 C 292.56 542.90, 293.51 541.79, 294.85 539.86 C 296.19 537.94, 296.73 536.91, 297.60 535.00 C 298.48 533.10, 298.88 532.01, 299.22 530.35 C 299.56 528.69, 299.42 527.89, 299.29 526.70 C 299.16 525.51, 298.75 525.02, 298.57 524.41 C 298.39 523.80, 298.39 523.81, 298.40 523.64 C 298.41 523.48, 298.49 523.57, 298.60 523.57 C 298.70 523.58, 298.72 523.61, 298.93 523.68 C 299.14 523.75, 299.14 523.81, 299.66 523.91 C 300.19 524.00, 300.48 524.15, 301.55 524.14 C 302.62 524.14, 303.41 524.04, 305.03 523.90 C 306.64 523.75, 307.72 523.55, 309.63 523.41 C 311.55 523.27, 312.71 523.17, 314.60 523.20 C 316.49 523.22, 317.61 523.23, 319.06 523.55 C 320.50 523.87, 321.08 524.02, 321.82 524.81 C 322.56 525.60, 322.57 526.21, 322.76 527.49 C 322.95 528.76, 322.93 529.60, 322.76 531.19 C 322.60 532.77, 322.40 533.65, 321.95 535.43 C 321.50 537.20, 321.01 538.30, 320.51 540.06 C 320.01 541.83, 319.63 542.93, 319.45 544.25 C 319.26 545.58, 319.30 546.02, 319.59 546.68 C 319.87 547.35, 320.43 547.52, 320.86 547.57 C 321.30 547.61, 321.73 547.18, 321.78 546.91 C 321.83 546.64, 321.32 546.26, 321.13 546.23 C 320.93 546.20, 320.85 546.67, 320.81 546.75 C 320.77 546.83, 320.70 546.97, 320.93 546.61 C 321.16 546.26, 321.43 546.10, 321.96 544.98 C 322.48 543.86, 322.95 542.77, 323.54 541.00 C 324.13 539.23, 324.51 538.05, 324.92 536.12 C 325.33 534.19, 325.55 533.19, 325.60 531.36 C 325.65 529.53, 325.60 528.57, 325.17 526.96 C 324.73 525.36, 324.49 524.53, 323.42 523.34 C 322.35 522.16, 321.55 521.70, 319.82 521.05 C 318.10 520.40, 316.85 520.30, 314.78 520.09 C 312.71 519.89, 311.49 519.99, 309.46 520.04 C 307.44 520.10, 306.33 520.18, 304.67 520.36 C 303.01 520.55, 302.21 520.71, 301.16 520.96 C 300.12 521.22, 299.92 521.45, 299.45 521.64 C 298.99 521.82, 299.17 521.79, 298.85 521.88 C 298.53 521.98, 298.23 521.85, 297.85 522.10 C 297.48 522.35, 297.21 522.62, 296.97 523.14 C 296.73 523.65, 296.65 523.93, 296.66 524.68 C 296.68 525.42, 297.01 525.84, 297.03 526.86 C 297.06 527.88, 297.17 528.39, 296.80 529.78 C 296.42 531.17, 296.00 532.13, 295.14 533.81 C 294.28 535.49, 293.78 536.43, 292.48 538.16 C 291.19 539.88, 290.26 540.86, 288.67 542.44 C 287.09 544.02, 286.08 544.77, 284.54 546.07 C 283.01 547.37, 282.28 548.03, 280.98 548.92 C 279.68 549.82, 279.00 550.11, 278.04 550.56 C 277.08 551.01, 276.73 551.20, 276.16 551.17 C 275.60 551.14, 275.42 550.97, 275.22 550.41 C 275.02 549.84, 275.10 549.33, 275.15 548.34 C 275.20 547.36, 275.40 546.71, 275.47 545.50 C 275.54 544.29, 275.68 543.47, 275.50 542.29 C 275.32 541.12, 275.13 540.43, 274.58 539.63 C 274.03 538.83, 273.66 538.44, 272.74 538.28 C 271.81 538.13, 271.24 538.29, 269.97 538.85 C 268.70 539.41, 267.91 540.01, 266.39 541.08 C 264.88 542.16, 264.14 542.92, 262.38 544.23 C 260.62 545.54, 259.64 546.41, 257.60 547.62 C 255.56 548.83, 254.35 549.43, 252.20 550.29 C 250.05 551.15, 248.81 551.44, 246.86 551.91 C 244.92 552.37, 243.95 552.49, 242.46 552.62 C 240.98 552.74, 240.26 552.79, 239.44 552.52 C 238.61 552.25, 238.36 552.04, 238.32 551.26 C 238.28 550.48, 238.65 549.86, 239.24 548.64 C 239.82 547.42, 240.43 546.65, 241.23 545.17 C 242.04 543.69, 242.76 542.71, 243.25 541.24 C 243.74 539.77, 243.84 538.79, 243.67 537.82 C 243.50 536.84, 243.21 536.54, 242.38 536.37 C 241.56 536.20, 240.97 536.32, 239.56 536.95 C 238.14 537.58, 237.13 538.38, 235.29 539.51 C 233.45 540.64, 232.40 541.36, 230.37 542.59 C 228.33 543.81, 227.28 544.53, 225.10 545.64 C 222.93 546.76, 221.57 547.30, 219.50 548.15 C 217.43 549.01, 216.42 549.37, 214.75 549.93 C 213.08 550.48, 212.23 550.74, 211.16 550.95 C 210.08 551.15, 209.76 551.17, 209.39 550.95 C 209.01 550.73, 209.07 550.45, 209.29 549.83 C 209.51 549.20, 209.78 548.83, 210.49 547.81 C 211.19 546.80, 211.82 546.06, 212.83 544.74 C 213.84 543.42, 214.51 542.50, 215.54 541.20 C 216.57 539.91, 216.98 539.20, 217.97 538.27 C 218.96 537.34, 219.56 537.13, 220.48 536.55 C 221.39 535.97, 221.75 535.68, 222.55 535.37 C 223.36 535.06, 223.69 535.06, 224.51 534.99 C 225.33 534.91, 225.86 534.94, 226.65 535.00 C 227.45 535.06, 227.91 535.12, 228.49 535.30 C 229.07 535.48, 229.26 535.64, 229.54 535.90 C 229.83 536.16, 230.04 536.32, 229.91 536.60 C 229.79 536.88, 229.58 537.00, 228.93 537.30 C 228.29 537.60, 227.83 537.76, 226.70 538.10 C 225.57 538.43, 224.76 538.55, 223.28 538.97 C 221.81 539.38, 221.04 539.61, 219.31 540.16 C 217.58 540.72, 216.62 541.00, 214.63 541.72 C 212.64 542.44, 211.62 542.84, 209.35 543.75 C 207.09 544.66, 205.77 545.25, 203.29 546.27 C 200.82 547.29, 199.52 547.87, 196.98 548.86 C 194.44 549.84, 193.18 550.33, 190.58 551.18 C 187.97 552.03, 186.61 552.43, 183.96 553.12 C 181.31 553.81, 179.95 554.14, 177.32 554.63 C 174.70 555.11, 173.26 555.28, 170.83 555.55 C 168.39 555.81, 167.11 555.89, 165.15 555.95 C 163.20 556.01, 162.35 556.00, 161.06 555.85 C 159.77 555.71, 159.18 555.58, 158.71 555.25 C 158.24 554.92, 158.17 554.91, 158.71 554.20 C 159.24 553.50, 159.94 553.03, 161.39 551.74 C 162.85 550.44, 163.88 549.42, 165.98 547.71 C 168.09 546.00, 169.31 545.04, 171.93 543.17 C 174.56 541.30, 176.19 540.28, 179.10 538.35 C 182.02 536.42, 183.65 535.41, 186.50 533.52 C 189.35 531.63, 190.65 530.83, 193.36 528.89 C 196.07 526.94, 197.41 525.92, 200.05 523.80 C 202.69 521.68, 204.02 520.47, 206.54 518.28 C 209.07 516.08, 210.51 514.98, 212.68 512.84 C 214.86 510.70, 215.89 509.64, 217.43 507.57 C 218.98 505.50, 219.74 504.49, 220.41 502.47 C 221.09 500.46, 221.07 499.24, 220.80 497.48 C 220.52 495.73, 219.96 495.09, 219.05 493.68 C 218.14 492.27, 217.64 491.70, 216.25 490.41 C 214.85 489.13, 213.91 488.38, 212.09 487.26 C 210.26 486.13, 209.22 485.67, 207.14 484.77 C 205.05 483.86, 203.95 483.34, 201.65 482.71 C 199.35 482.09, 198.15 481.66, 195.65 481.62 C 193.15 481.58, 191.72 481.83, 189.15 482.53 C 186.57 483.23, 185.25 483.79, 182.77 485.14 C 180.29 486.49, 179.11 487.25, 176.76 489.27 C 174.41 491.29, 173.14 492.52, 171.03 495.23 C 168.93 497.94, 167.99 499.73, 166.23 502.82 C 164.47 505.91, 163.85 507.38, 162.25 510.69 C 160.64 514.00, 159.59 516.03, 158.21 519.37 C 156.82 522.71, 156.28 524.24, 155.32 527.38 C 154.36 530.53, 154.11 532.00, 153.40 535.08 C 152.68 538.16, 152.28 539.71, 151.75 542.79 C 151.23 545.88, 151.12 547.35, 150.79 550.49 C 150.46 553.64, 150.28 555.44, 150.11 558.53 C 149.94 561.61, 149.74 563.41, 149.92 565.91 C 150.11 568.41, 150.46 569.73, 151.04 571.03 C 151.62 572.33, 152.11 572.61, 152.82 572.41 C 153.54 572.20, 153.95 571.60, 154.64 570.02 C 155.33 568.44, 155.69 567.18, 156.27 564.49 C 156.86 561.80, 156.91 560.09, 157.57 556.56 C 158.22 553.03, 158.66 551.07, 159.56 546.84 C 160.47 542.61, 160.96 540.19, 162.09 535.42 C 163.22 530.64, 163.79 528.05, 165.20 522.95 C 166.61 517.84, 167.51 515.01, 169.14 509.88 C 170.76 504.74, 171.62 501.95, 173.33 497.28 C 175.05 492.61, 176.09 490.39, 177.70 486.52 C 179.30 482.66, 180.01 481.05, 181.36 477.97 C 182.70 474.90, 183.52 473.46, 184.42 471.14 C 185.33 468.81, 185.58 467.87, 185.86 466.37 C 186.15 464.88, 186.06 464.26, 185.85 463.67 C 185.64 463.08, 185.27 463.04, 184.84 463.43" style="stroke: black; fill: black;"/><path d="M 332.87,513.26 C 333.27 513.29, 333.55 513.30, 333.67 513.12 C 333.79 512.93, 333.77 512.67, 333.46 512.35 C 333.15 512.02, 332.60 511.57, 332.14 511.49 C 331.67 511.41, 331.22 511.66, 331.12 511.96 C 331.02 512.25, 331.29 512.70, 331.64 512.96 C 331.99 513.22, 332.46 513.23, 332.87 513.26" style="stroke: black; fill: black;"/><path d="M 365.31,526.96 C 365.19 526.58, 365.05 526.26, 364.32 525.96 C 363.60 525.67, 363.05 525.32, 361.69 525.50 C 360.32 525.68, 359.44 525.94, 357.52 526.86 C 355.59 527.77, 354.29 528.44, 352.07 530.07 C 349.85 531.69, 348.44 533.00, 346.43 534.97 C 344.42 536.94, 343.42 537.89, 342.02 539.91 C 340.61 541.94, 340.02 543.24, 339.40 545.09 C 338.78 546.94, 338.64 547.88, 338.92 549.17 C 339.20 550.45, 339.65 551.07, 340.79 551.51 C 341.92 551.95, 342.80 551.84, 344.60 551.35 C 346.40 550.86, 347.55 550.50, 349.80 549.06 C 352.05 547.61, 353.23 546.41, 355.87 544.12 C 358.51 541.84, 360.02 540.50, 363.00 537.62 C 365.98 534.73, 367.73 532.96, 370.76 529.69 C 373.80 526.42, 375.28 524.49, 378.18 521.27 C 381.07 518.06, 382.64 516.48, 385.25 513.61 C 387.86 510.75, 389.46 509.25, 391.23 506.97 C 393.00 504.70, 393.73 503.46, 394.08 502.24 C 394.44 501.02, 393.91 500.69, 393.01 500.87 C 392.11 501.04, 391.32 501.49, 389.60 503.11 C 387.87 504.74, 386.59 506.09, 384.39 509.00 C 382.18 511.90, 380.73 514.17, 378.55 517.63 C 376.37 521.09, 375.14 523.07, 373.51 526.29 C 371.88 529.51, 371.01 530.94, 370.40 533.73 C 369.79 536.52, 369.77 538.04, 370.46 540.23 C 371.15 542.41, 371.90 543.42, 373.84 544.66 C 375.78 545.90, 377.17 546.34, 380.17 546.44 C 383.17 546.53, 385.17 545.90, 388.84 545.13 C 392.50 544.37, 394.60 543.81, 398.50 542.61 C 402.40 541.41, 404.54 540.59, 408.34 539.12 C 412.14 537.66, 414.16 536.87, 417.49 535.29 C 420.81 533.70, 422.53 532.95, 424.97 531.19 C 427.40 529.43, 428.40 528.22, 429.67 526.49 C 430.93 524.76, 431.30 523.76, 431.28 522.56 C 431.26 521.35, 430.80 520.91, 429.58 520.46 C 428.35 520.02, 427.28 519.83, 425.16 520.33 C 423.04 520.82, 421.49 521.39, 418.98 522.93 C 416.48 524.47, 414.73 525.81, 412.64 528.02 C 410.54 530.23, 409.52 531.61, 408.53 533.98 C 407.53 536.35, 407.26 537.71, 407.66 539.86 C 408.05 542.01, 408.70 543.05, 410.50 544.72 C 412.30 546.39, 413.57 547.16, 416.65 548.22 C 419.73 549.28, 422.37 549.56, 425.90 550.02 C 429.43 550.48, 431.41 550.54, 434.29 550.54 C 437.16 550.54, 439.07 550.32, 440.28 550.00 C 441.48 549.68, 441.48 549.36, 440.31 548.96 C 439.15 548.56, 437.24 548.32, 434.43 547.99 C 431.63 547.66, 429.66 547.79, 426.28 547.30 C 422.89 546.81, 420.37 546.43, 417.51 545.56 C 414.66 544.69, 413.57 544.17, 412.01 542.96 C 410.45 541.75, 409.92 541.09, 409.69 539.52 C 409.46 537.95, 409.81 536.94, 410.85 535.10 C 411.89 533.26, 412.86 532.12, 414.88 530.30 C 416.89 528.48, 418.67 527.44, 420.91 526.00 C 423.16 524.56, 424.41 523.90, 426.10 523.10 C 427.78 522.31, 428.57 522.17, 429.35 522.02 C 430.13 521.87, 430.28 521.76, 430.00 522.36 C 429.71 522.96, 429.20 523.66, 427.90 525.03 C 426.60 526.39, 425.78 527.52, 423.51 529.19 C 421.24 530.86, 419.73 531.76, 416.55 533.36 C 413.37 534.97, 411.34 535.78, 407.61 537.22 C 403.88 538.65, 401.73 539.44, 397.88 540.55 C 394.04 541.65, 391.91 542.12, 388.38 542.75 C 384.84 543.38, 382.90 543.69, 380.20 543.71 C 377.51 543.72, 376.46 543.65, 374.90 542.84 C 373.34 542.04, 372.84 541.38, 372.40 539.67 C 371.96 537.96, 372.09 536.75, 372.72 534.28 C 373.35 531.81, 373.98 530.40, 375.55 527.33 C 377.12 524.26, 378.34 522.25, 380.57 518.95 C 382.81 515.64, 384.48 513.60, 386.71 510.81 C 388.94 508.02, 390.34 506.84, 391.71 505.00 C 393.09 503.16, 393.33 502.30, 393.57 501.60 C 393.81 500.90, 393.81 500.78, 392.94 501.52 C 392.06 502.27, 391.05 503.17, 389.20 505.32 C 387.36 507.46, 386.20 509.33, 383.71 512.27 C 381.23 515.21, 379.65 516.80, 376.78 520.02 C 373.91 523.24, 372.41 525.17, 369.36 528.38 C 366.31 531.58, 364.57 533.31, 361.54 536.06 C 358.51 538.80, 356.91 540.05, 354.22 542.11 C 351.53 544.18, 350.20 545.03, 348.08 546.38 C 345.97 547.73, 345.04 548.14, 343.65 548.86 C 342.27 549.58, 341.74 549.97, 341.14 550.00 C 340.53 550.04, 340.52 549.83, 340.64 549.04 C 340.75 548.24, 340.99 547.51, 341.71 546.02 C 342.44 544.52, 342.88 543.31, 344.25 541.57 C 345.63 539.83, 346.62 539.04, 348.60 537.31 C 350.58 535.58, 352.05 534.42, 354.14 532.92 C 356.23 531.42, 357.41 530.75, 359.05 529.82 C 360.69 528.90, 361.34 528.67, 362.33 528.31 C 363.32 527.95, 363.47 528.11, 363.98 528.02 C 364.49 527.93, 364.62 528.09, 364.89 527.88 C 365.15 527.67, 365.42 527.35, 365.31 526.96" style="stroke: black; fill: black;"/><path d="M 543.44,492.48 C 543.37 492.89, 543.62 492.96, 543.83 493.86 C 544.05 494.75, 544.07 495.49, 544.51 496.95 C 544.95 498.42, 545.49 499.24, 546.03 501.20 C 546.57 503.15, 546.79 504.33, 547.22 506.74 C 547.66 509.15, 547.97 510.57, 548.21 513.23 C 548.46 515.89, 548.51 517.30, 548.44 520.03 C 548.38 522.77, 548.27 524.28, 547.89 526.89 C 547.51 529.50, 547.25 530.66, 546.54 533.07 C 545.84 535.49, 545.16 536.81, 544.36 538.96 C 543.56 541.11, 543.07 542.22, 542.55 543.81 C 542.04 545.41, 542.00 546.26, 541.78 546.92 C 541.56 547.58, 541.54 546.99, 541.47 547.10 C 541.41 547.21, 541.19 547.34, 541.46 547.46 C 541.72 547.59, 542.10 548.24, 542.80 547.72 C 543.51 547.20, 544.14 546.40, 544.97 544.85 C 545.80 543.29, 546.13 542.14, 546.97 539.94 C 547.81 537.74, 548.44 536.36, 549.17 533.84 C 549.90 531.31, 550.18 530.05, 550.61 527.30 C 551.04 524.56, 551.22 522.99, 551.34 520.13 C 551.46 517.26, 551.40 515.76, 551.20 512.98 C 550.99 510.20, 550.71 508.74, 550.30 506.21 C 549.89 503.69, 549.71 502.42, 549.15 500.34 C 548.60 498.27, 548.17 497.37, 547.52 495.86 C 546.88 494.34, 546.60 493.58, 545.93 492.77 C 545.27 491.96, 544.69 491.86, 544.19 491.81 C 543.69 491.75, 543.52 492.07, 543.44 492.48" style="stroke: black; fill: black;"/><path d="M 527.44,493.27 C 527.45 493.14, 526.96 493.47, 527.04 493.63 C 527.13 493.79, 526.95 494.05, 527.85 494.08 C 528.76 494.10, 529.38 493.99, 531.58 493.74 C 533.77 493.50, 535.28 493.26, 538.82 492.84 C 542.36 492.42, 544.63 492.23, 549.27 491.65 C 553.92 491.07, 556.62 490.65, 562.05 489.94 C 567.48 489.23, 570.57 488.77, 576.42 488.11 C 582.26 487.45, 585.62 487.11, 591.28 486.65 C 596.94 486.19, 599.85 485.86, 604.70 485.81 C 609.55 485.76, 611.85 486.13, 615.52 486.42 C 619.20 486.71, 620.80 486.98, 623.06 487.24 C 625.32 487.49, 626.04 487.74, 626.83 487.70 C 627.62 487.65, 627.71 487.45, 627.01 487.01 C 626.31 486.58, 625.61 486.01, 623.34 485.51 C 621.07 485.02, 619.39 484.79, 615.66 484.54 C 611.93 484.29, 609.57 484.12, 604.67 484.25 C 599.77 484.39, 596.84 484.73, 591.16 485.22 C 585.48 485.70, 582.12 486.05, 576.26 486.68 C 570.40 487.31, 567.29 487.76, 561.85 488.36 C 556.42 488.97, 553.72 489.35, 549.07 489.71 C 544.43 490.08, 542.19 490.02, 538.61 490.17 C 535.03 490.32, 533.46 490.17, 531.17 490.47 C 528.88 490.78, 528.14 491.12, 527.16 491.69 C 526.18 492.27, 526.31 492.84, 526.27 493.35 C 526.23 493.86, 526.71 494.26, 526.95 494.25 C 527.18 494.23, 527.42 493.39, 527.44 493.27" style="stroke: black; fill: black;"/><path d="M 636.89,520.26 C 636.95 519.78, 636.90 519.26, 636.34 518.56 C 635.78 517.85, 635.32 517.34, 634.11 516.72 C 632.89 516.09, 632.04 515.62, 630.27 515.43 C 628.49 515.24, 627.48 515.28, 625.21 515.76 C 622.95 516.25, 621.50 516.63, 618.94 517.85 C 616.38 519.07, 614.94 519.99, 612.41 521.86 C 609.88 523.72, 608.59 524.93, 606.28 527.20 C 603.97 529.46, 602.52 530.89, 600.87 533.19 C 599.22 535.49, 598.72 536.70, 598.02 538.68 C 597.32 540.66, 597.10 541.63, 597.37 543.09 C 597.64 544.56, 598.19 545.16, 599.37 546.01 C 600.55 546.85, 601.27 547.17, 603.27 547.31 C 605.27 547.45, 606.60 547.42, 609.39 546.71 C 612.18 546.00, 613.87 545.29, 617.22 543.77 C 620.58 542.26, 622.56 541.13, 626.15 539.15 C 629.75 537.17, 631.83 535.79, 635.20 533.86 C 638.56 531.93, 640.62 531.04, 642.98 529.50 C 645.34 527.97, 646.25 526.94, 647.00 526.17 C 647.76 525.40, 647.60 525.28, 646.75 525.65 C 645.90 526.03, 644.51 526.61, 642.73 528.06 C 640.95 529.50, 639.53 530.73, 637.85 532.88 C 636.17 535.04, 635.39 536.56, 634.34 538.83 C 633.29 541.11, 632.69 542.34, 632.59 544.25 C 632.50 546.15, 632.82 547.01, 633.86 548.35 C 634.91 549.69, 635.62 550.48, 637.82 550.95 C 640.02 551.42, 641.55 551.41, 644.86 550.70 C 648.17 550.00, 650.34 549.15, 654.37 547.42 C 658.41 545.69, 660.73 544.48, 665.03 542.03 C 669.33 539.58, 671.69 537.99, 675.88 535.17 C 680.07 532.36, 682.07 530.95, 685.99 527.96 C 689.90 524.98, 691.95 523.34, 695.47 520.25 C 698.99 517.16, 700.63 515.57, 703.58 512.53 C 706.52 509.49, 707.88 507.93, 710.19 505.07 C 712.49 502.20, 713.62 500.78, 715.10 498.22 C 716.58 495.66, 717.13 494.35, 717.58 492.25 C 718.04 490.14, 717.93 489.23, 717.36 487.70 C 716.78 486.16, 716.20 485.50, 714.73 484.56 C 713.26 483.62, 712.20 483.18, 710.00 482.99 C 707.79 482.81, 706.47 482.85, 703.71 483.64 C 700.95 484.43, 699.27 485.13, 696.19 486.94 C 693.11 488.76, 691.28 489.99, 688.31 492.70 C 685.34 495.41, 683.93 497.27, 681.35 500.51 C 678.77 503.75, 677.38 505.57, 675.41 508.90 C 673.44 512.24, 672.66 513.98, 671.48 517.19 C 670.29 520.39, 669.78 522.01, 669.48 524.94 C 669.18 527.86, 669.34 529.27, 669.96 531.83 C 670.57 534.38, 671.05 535.64, 672.54 537.70 C 674.02 539.77, 675.08 540.80, 677.38 542.17 C 679.69 543.55, 681.16 544.01, 684.06 544.58 C 686.96 545.16, 688.61 545.34, 691.90 545.04 C 695.20 544.74, 697.18 544.19, 700.54 543.08 C 703.89 541.98, 705.75 541.05, 708.70 539.52 C 711.65 537.99, 713.14 537.15, 715.29 535.43 C 717.43 533.72, 718.26 532.70, 719.42 530.94 C 720.58 529.19, 720.99 528.15, 721.09 526.65 C 721.19 525.15, 720.87 524.48, 719.92 523.43 C 718.97 522.38, 718.06 521.81, 716.32 521.40 C 714.57 521.00, 713.36 520.97, 711.20 521.41 C 709.04 521.85, 707.74 522.39, 705.52 523.60 C 703.30 524.82, 702.07 525.70, 700.10 527.48 C 698.14 529.26, 697.03 530.50, 695.67 532.51 C 694.31 534.51, 693.85 535.60, 693.30 537.53 C 692.75 539.46, 692.73 540.41, 692.92 542.14 C 693.12 543.88, 693.39 544.75, 694.28 546.21 C 695.17 547.66, 695.92 548.44, 697.38 549.43 C 698.85 550.42, 699.69 550.80, 701.61 551.15 C 703.52 551.51, 704.62 551.50, 706.96 551.22 C 709.30 550.93, 710.59 550.63, 713.33 549.73 C 716.06 548.82, 717.57 548.05, 720.63 546.68 C 723.69 545.32, 725.53 544.45, 728.63 542.92 C 731.73 541.38, 733.39 540.56, 736.11 539.00 C 738.84 537.44, 740.06 536.47, 742.26 535.11 C 744.46 533.74, 745.42 533.11, 747.10 532.18 C 748.78 531.24, 749.58 530.87, 750.66 530.43 C 751.75 529.99, 752.08 529.90, 752.51 530.00 C 752.94 530.10, 752.90 530.39, 752.82 530.91 C 752.75 531.44, 752.61 531.67, 752.14 532.63 C 751.68 533.60, 751.25 534.14, 750.49 535.74 C 749.73 537.34, 749.11 538.67, 748.36 540.63 C 747.61 542.59, 747.18 543.78, 746.73 545.53 C 746.27 547.29, 745.96 548.05, 746.08 549.41 C 746.19 550.77, 746.34 551.49, 747.29 552.32 C 748.24 553.14, 749.23 553.46, 750.82 553.55 C 752.41 553.63, 753.45 553.22, 755.24 552.74 C 757.03 552.26, 757.93 551.90, 759.77 551.16 C 761.61 550.42, 762.62 549.99, 764.44 549.04 C 766.27 548.09, 767.15 547.53, 768.89 546.40 C 770.64 545.28, 771.56 544.77, 773.18 543.41 C 774.80 542.05, 775.45 541.23, 777.01 539.60 C 778.58 537.98, 779.56 537.09, 781.00 535.27 C 782.44 533.46, 783.04 532.30, 784.21 530.53 C 785.38 528.76, 785.81 527.70, 786.84 526.44 C 787.87 525.17, 788.46 524.88, 789.36 524.20 C 790.25 523.52, 790.50 523.29, 791.32 523.06 C 792.14 522.83, 792.55 522.89, 793.44 523.06 C 794.33 523.24, 794.70 523.57, 795.76 523.93 C 796.83 524.29, 797.68 524.51, 798.75 524.86 C 799.83 525.22, 800.40 525.41, 801.15 525.70 C 801.91 525.99, 802.23 526.05, 802.53 526.31 C 802.83 526.57, 802.85 526.61, 802.65 527.00 C 802.45 527.40, 802.28 527.50, 801.51 528.29 C 800.74 529.07, 800.11 529.67, 798.82 530.94 C 797.54 532.20, 796.58 533.02, 795.07 534.62 C 793.56 536.22, 792.51 537.31, 791.26 538.94 C 790.02 540.58, 789.51 541.42, 788.84 542.82 C 788.16 544.22, 787.77 544.91, 787.89 545.94 C 788.02 546.96, 789.00 547.64, 789.47 547.94 C 789.94 548.23, 790.25 547.81, 790.24 547.41 C 790.24 547.01, 789.32 546.60, 789.44 545.94 C 789.57 545.28, 790.03 545.10, 790.87 544.10 C 791.71 543.10, 792.29 542.36, 793.63 540.95 C 794.97 539.55, 796.04 538.60, 797.58 537.06 C 799.12 535.53, 800.08 534.71, 801.32 533.28 C 802.57 531.85, 803.16 531.10, 803.80 529.92 C 804.43 528.73, 804.45 528.30, 804.50 527.37 C 804.56 526.44, 804.48 526.06, 804.08 525.27 C 803.68 524.48, 803.37 524.10, 802.51 523.43 C 801.66 522.76, 801.02 522.37, 799.82 521.91 C 798.62 521.44, 797.74 521.34, 796.51 521.10 C 795.27 520.86, 794.81 520.70, 793.65 520.69 C 792.50 520.68, 791.84 520.73, 790.73 521.07 C 789.63 521.41, 789.29 521.66, 788.12 522.39 C 786.95 523.12, 786.16 523.41, 784.90 524.71 C 783.64 526.02, 783.07 527.16, 781.84 528.91 C 780.60 530.66, 780.09 531.72, 778.72 533.47 C 777.34 535.22, 776.41 536.09, 774.96 537.67 C 773.51 539.25, 772.96 540.08, 771.45 541.36 C 769.94 542.64, 769.08 543.04, 767.42 544.07 C 765.76 545.10, 764.89 545.63, 763.15 546.49 C 761.40 547.34, 760.44 547.71, 758.69 548.35 C 756.93 548.99, 755.97 549.20, 754.37 549.70 C 752.77 550.20, 751.88 550.60, 750.67 550.84 C 749.46 551.09, 748.84 551.19, 748.32 550.93 C 747.80 550.66, 747.81 550.40, 748.06 549.52 C 748.30 548.64, 748.80 548.05, 749.53 546.54 C 750.25 545.04, 750.86 543.89, 751.68 541.99 C 752.50 540.08, 753.05 538.74, 753.64 537.01 C 754.23 535.29, 754.44 534.64, 754.64 533.37 C 754.83 532.09, 754.91 531.58, 754.60 530.62 C 754.29 529.67, 753.98 529.04, 753.07 528.60 C 752.17 528.16, 751.51 528.14, 750.09 528.43 C 748.67 528.71, 747.82 529.13, 745.98 530.03 C 744.14 530.92, 743.13 531.55, 740.90 532.90 C 738.68 534.26, 737.53 535.25, 734.85 536.81 C 732.18 538.37, 730.58 539.19, 727.53 540.68 C 724.48 542.17, 722.62 543.01, 719.59 544.25 C 716.57 545.48, 715.00 546.03, 712.40 546.86 C 709.79 547.70, 708.63 548.08, 706.56 548.42 C 704.49 548.76, 703.60 548.80, 702.04 548.57 C 700.49 548.35, 699.94 548.02, 698.80 547.29 C 697.66 546.55, 697.07 545.97, 696.34 544.89 C 695.61 543.81, 695.31 543.22, 695.16 541.89 C 695.02 540.57, 695.05 539.82, 695.61 538.27 C 696.17 536.72, 696.66 535.85, 697.97 534.16 C 699.27 532.46, 700.34 531.36, 702.15 529.78 C 703.95 528.21, 705.06 527.38, 707.01 526.30 C 708.95 525.22, 710.10 524.85, 711.88 524.39 C 713.66 523.93, 714.56 523.92, 715.91 524.00 C 717.26 524.08, 717.96 524.31, 718.64 524.79 C 719.32 525.28, 719.51 525.46, 719.29 526.42 C 719.07 527.38, 718.66 528.19, 717.54 529.58 C 716.42 530.97, 715.68 531.84, 713.68 533.38 C 711.68 534.92, 710.31 535.81, 707.53 537.28 C 704.75 538.76, 702.93 539.70, 699.77 540.74 C 696.60 541.79, 694.72 542.27, 691.69 542.50 C 688.66 542.72, 687.20 542.40, 684.60 541.88 C 682.00 541.36, 680.71 541.03, 678.69 539.91 C 676.67 538.79, 675.79 537.99, 674.51 536.26 C 673.23 534.54, 672.79 533.50, 672.27 531.28 C 671.75 529.06, 671.65 527.85, 671.91 525.18 C 672.16 522.51, 672.49 520.98, 673.54 517.93 C 674.60 514.88, 675.30 513.17, 677.18 509.94 C 679.06 506.71, 680.43 504.91, 682.94 501.79 C 685.46 498.67, 686.88 496.86, 689.77 494.34 C 692.67 491.81, 694.47 490.71, 697.42 489.15 C 700.37 487.58, 702.03 487.22, 704.53 486.53 C 707.02 485.84, 708.05 485.71, 709.88 485.69 C 711.72 485.67, 712.52 485.92, 713.68 486.44 C 714.83 486.96, 715.30 487.25, 715.67 488.31 C 716.03 489.36, 716.04 489.98, 715.51 491.72 C 714.98 493.46, 714.38 494.59, 712.99 497.01 C 711.61 499.43, 710.74 500.97, 708.60 503.83 C 706.46 506.69, 705.13 508.27, 702.29 511.30 C 699.44 514.34, 697.84 515.94, 694.38 519.02 C 690.93 522.10, 688.90 523.74, 685.02 526.70 C 681.14 529.66, 679.15 531.07, 674.98 533.82 C 670.81 536.57, 668.44 538.14, 664.16 540.46 C 659.88 542.79, 657.54 543.93, 653.57 545.45 C 649.60 546.97, 647.39 547.45, 644.31 548.08 C 641.24 548.71, 640.00 548.78, 638.20 548.60 C 636.39 548.43, 635.98 548.02, 635.29 547.21 C 634.60 546.39, 634.41 545.92, 634.75 544.53 C 635.09 543.15, 635.78 542.15, 636.99 540.29 C 638.21 538.44, 639.23 537.25, 640.84 535.25 C 642.45 533.26, 643.68 532.10, 645.05 530.33 C 646.42 528.55, 647.41 527.46, 647.69 526.40 C 647.98 525.34, 647.70 524.89, 646.47 525.04 C 645.25 525.19, 644.06 525.79, 641.58 527.17 C 639.10 528.55, 637.35 529.92, 634.06 531.93 C 630.76 533.94, 628.66 535.30, 625.10 537.20 C 621.53 539.10, 619.54 540.15, 616.24 541.44 C 612.94 542.73, 611.21 543.00, 608.61 543.66 C 606.02 544.31, 604.92 544.57, 603.26 544.72 C 601.60 544.88, 601.15 544.80, 600.32 544.43 C 599.49 544.06, 599.13 543.84, 599.10 542.88 C 599.07 541.91, 599.37 541.19, 600.18 539.59 C 600.98 537.99, 601.54 536.97, 603.14 534.88 C 604.75 532.78, 606.00 531.28, 608.18 529.13 C 610.36 526.98, 611.64 525.83, 614.05 524.14 C 616.47 522.45, 617.90 521.77, 620.26 520.69 C 622.63 519.60, 623.94 519.18, 625.88 518.72 C 627.82 518.25, 628.56 518.22, 629.94 518.37 C 631.33 518.53, 631.83 519.08, 632.80 519.48 C 633.78 519.89, 634.16 520.11, 634.81 520.40 C 635.46 520.69, 635.62 520.97, 636.04 520.94 C 636.46 520.91, 636.83 520.74, 636.89 520.26" style="stroke: black; fill: black;"/><path d="M 816.65,504.39 C 817.01 504.88, 817.94 505.28, 818.73 505.41 C 819.53 505.53, 820.21 505.32, 820.63 505.00 C 821.06 504.69, 821.12 504.29, 820.84 503.85 C 820.56 503.41, 820.01 503.00, 819.23 502.82 C 818.45 502.64, 817.45 502.64, 816.94 502.95 C 816.42 503.27, 816.29 503.90, 816.65 504.39" style="stroke: black; fill: black;"/></svg>